<svg id="Layer_1" data-name="Layer 1" xmlns="http://www.w3.org/2000/svg" viewBox="0 0 474.94 284.09">
  <defs>
    <style>
      .cls-1, .cls-4, .cls-5, .cls-6, .cls-7 {
        fill: #21201f;
      }

      .cls-2 {
        fill: #e21f26;
      }

      .cls-3 {
        fill: #336080;
      }

      .cls-4 {
        opacity: 0.6;
      }

      .cls-5 {
        opacity: 0.8;
      }

      .cls-6 {
        opacity: 0.9;
      }

      .cls-7 {
        opacity: 0.7;
      }
    </style>
  </defs>
  <title>Zola_Logo_ZOLA &amp;amp; WEDDING REGISTRY_Black</title>
  <path class="cls-1" d="M570.78,180.57l-.18-.17h0Z" transform="translate(-335.92 -173.27)"/>
  <path class="cls-1" d="M421.82,375.49v9.95a3.84,3.84,0,0,1-3.87,3.74l-75.25-.05a3.77,3.77,0,0,1-3.74-3.8V374a3.86,3.86,0,0,1,1.07-2.48l53.8-60H339.66a3.72,3.72,0,0,1-3.74-3.74l.07-10.18a3.77,3.77,0,0,1,3.8-3.74L415,294a3.77,3.77,0,0,1,3.74,3.8v10.74a4,4,0,0,1-1,2.85l-53.72,60.27h54a3.77,3.77,0,0,1,3.74,3.8" transform="translate(-335.92 -173.27)"/>
  <path class="cls-1" d="M512,390.34a49,49,0,1,1,49.35-48.63A49.05,49.05,0,0,1,512,390.34m.58-79.56a30.56,30.56,0,1,0,30.34,30.79,30.6,30.6,0,0,0-30.34-30.79" transform="translate(-335.92 -173.27)"/>
  <path class="cls-1" d="M672.34,373.95v12.67c0,1.37-1.52,2.55-3.25,2.54l-52.65,0a2.48,2.48,0,0,1-2.47-2.5V296.46c0-1.37,1.79-2.48,3.16-2.47l12.75,0a2.48,2.48,0,0,1,2.47,2.5v75h36.86c1.73,0,3.13,1.13,3.12,2.51" transform="translate(-335.92 -173.27)"/>
  <path class="cls-1" d="M808.11,389.15H794.39a2.73,2.73,0,0,1-2.48-1.64l-8.2-19.22H739.07l-8.64,19.26a2.73,2.73,0,0,1-2.51,1.6H714a2.73,2.73,0,0,1-2.46-3.85l40.88-89.62a2.67,2.67,0,0,1,2.33-1.69H769.1a2.64,2.64,0,0,1,2.31,1.83l39.22,89.52a2.73,2.73,0,0,1-2.52,3.82M776,350.63l-14.2-32.38-14.68,32.38Z" transform="translate(-335.92 -173.27)"/>
  <path class="cls-2" d="M530.32,247.48h0Z" transform="translate(-335.92 -173.27)"/>
  <path class="cls-3" d="M530.34,247.48h0Z" transform="translate(-335.92 -173.27)"/>
  <path class="cls-4" d="M644.26,175.83a27.21,27.21,0,0,0-11.61-2.57h-.06a26.71,26.71,0,0,0-15.86,5.31,25.74,25.74,0,0,0-7.91,9.73c-9.67,20.73,1.91,58.82,2,59.17h0c.19-.08,2.43-1,5.87-2.75,10.82-5.37,33.45-18.1,40.75-33.73C663.61,197.84,657.7,182.1,644.26,175.83Z" transform="translate(-335.92 -173.27)"/>
  <path class="cls-5" d="M579.35,199.23c0-.25,0-.51,0-.76s0-.33,0-.49,0-.45-.06-.68,0-.34-.06-.5-.06-.46-.1-.69,0-.31-.07-.47c-.06-.36-.13-.71-.21-1.07,0-.16-.08-.32-.11-.48s-.1-.43-.16-.64-.1-.36-.15-.55l-.17-.56-.18-.56-.19-.54c-.07-.19-.13-.37-.2-.56s-.15-.37-.22-.55-.28-.66-.43-1l-.22-.48-.29-.58-.23-.45-.32-.58-.25-.42-.35-.58-.24-.36q-.37-.57-.77-1.13l-.22-.31-.43-.56-.29-.36-.45-.53-.31-.35-.47-.52-.3-.31q-.52-.54-1.08-1.06l-.19-.17a27.37,27.37,0,0,0-6.86-4.57c-.63-.29-1.27-.55-1.91-.8a27.12,27.12,0,0,0-9.69-1.77h-.06a26.7,26.7,0,0,0-15.86,5.31,25.74,25.74,0,0,0-7.91,9.73c-2.87,6.16-3.87,13.86-3.85,21.64v.1c.07,18.36,5.79,37.17,5.87,37.42h0c.2-.08,2.44-1,5.87-2.75a144,144,0,0,0,25.61-16,72.73,72.73,0,0,0,8.78-8.29h0l.93-1.09.13-.16.72-.89.22-.28.62-.82.21-.28q.37-.51.73-1l0-.06c.25-.36.48-.72.71-1.09l.2-.32.47-.78.22-.39.42-.76.19-.36c.19-.37.38-.74.55-1.11s.34-.76.5-1.14l.14-.36c.1-.27.21-.53.3-.8l.14-.41q.13-.39.25-.79l.12-.39q.14-.49.26-1l0-.18c.09-.39.17-.78.24-1.16,0-.12,0-.24.06-.37,0-.27.09-.54.13-.81s0-.29.06-.44.06-.51.08-.76,0-.29,0-.44,0-.56,0-.84c0-.11,0-.23,0-.34q0-.57,0-1.14C579.36,199.5,579.36,199.37,579.35,199.23Z" transform="translate(-335.92 -173.27)"/>
  <path class="cls-6" d="M532.36,188.31a26,26,0,0,0-2-3.58,25.69,25.69,0,0,0-5.88-6.16,26.91,26.91,0,0,0-27.52-2.74c-13.44,6.27-19.35,22-13.22,35.16,7.29,15.63,29.92,28.36,40.74,33.73,3.43,1.7,5.67,2.66,5.87,2.75h0c.08-.25,5.82-19.15,5.87-37.55v0C536.22,202.13,535.23,194.45,532.36,188.31Z" transform="translate(-335.92 -173.27)"/>
  <path class="cls-7" d="M612.89,188.31a25.74,25.74,0,0,0-7.91-9.74A26.87,26.87,0,0,0,579.37,175c-.64.24-1.28.5-1.91.8a27.37,27.37,0,0,0-6.86,4.57c-.46.42-.89.85-1.32,1.29l-.23.24-.51.56-.27.31-.47.57-.25.32-.46.6-.14.2q-.46.64-.89,1.3l-.19.29-.37.61-.22.38-.33.6-.21.41-.3.61-.19.42q-.25.55-.48,1.11l-.19.47c-.07.19-.14.39-.21.58l-.18.51-.19.58-.16.54-.16.57c-.05.2-.1.41-.15.61s-.08.34-.12.51c-.08.35-.14.71-.21,1.06,0,.16-.05.33-.08.49s-.07.44-.1.66,0,.35-.06.52,0,.44-.06.66,0,.34,0,.51,0,.49,0,.74,0,.28,0,.42q0,.56,0,1.13c0,.12,0,.24,0,.36,0,.27,0,.55,0,.82s0,.3,0,.46,0,.49.08.74,0,.3.06.46.08.53.12.8l.06.38c.07.39.15.77.24,1.16l.05.2q.12.48.25,1l.12.4q.12.39.25.78l.14.42q.14.4.3.79l.14.37c.16.38.32.76.49,1.14s.36.75.55,1.12l.19.35.43.78.22.38.48.79.19.31c.23.36.47.73.71,1.09l0,.05c.23.34.48.69.73,1l.22.29.6.79.24.31.68.85.17.21.91,1.07h0a72.61,72.61,0,0,0,8.78,8.3,144,144,0,0,0,25.61,16c3.43,1.7,5.67,2.67,5.87,2.75h0c.07-.24,5.78-19,5.87-37.37v-.32C616.74,202.05,615.74,194.42,612.89,188.31Z" transform="translate(-335.92 -173.27)"/>
  <g>
    <path class="cls-1" d="M589.91,455.89a.86.86,0,0,1-.69,1.37h-2.73a.87.87,0,0,1-.69-.35l-3.4-4.6H577.6v4.35a.55.55,0,0,1-.55.55h-2.82a.55.55,0,0,1-.55-.55v-20a.55.55,0,0,1,.55-.55h7.9a8.4,8.4,0,0,1,5.76,2.13,8.92,8.92,0,0,1,0,11.9,7.12,7.12,0,0,1-1.43,1.05ZM577.6,448.4h4.67a4.54,4.54,0,0,0,2.93-1.07,5.12,5.12,0,0,0,0-6.2,4.58,4.58,0,0,0-3-1.07H577.6Z" transform="translate(-335.92 -173.27)"/>
    <path class="cls-1" d="M611.73,440v4.57H620a.55.55,0,0,1,.55.55V448a.55.55,0,0,1-.55.55h-8.27v4.79h10.72a.55.55,0,0,1,.55.55v2.82a.55.55,0,0,1-.55.55H608.36a.55.55,0,0,1-.55-.55v-20a.55.55,0,0,1,.55-.55h1.74a.54.54,0,0,1,.22,0h12.13a.55.55,0,0,1,.55.55v2.82a.55.55,0,0,1-.55.55Z" transform="translate(-335.92 -173.27)"/>
    <path class="cls-1" d="M656.63,446.3v7h0v3.1c0,.45-.25.82-.55.82h-2.82c-.28,0-.51-.32-.54-.73a10.8,10.8,0,0,1-15-11.17,10.8,10.8,0,0,1,18.23-6.54,1.05,1.05,0,0,1,0,1.5l-1.27,1.27a1.05,1.05,0,0,1-1.47,0,6.89,6.89,0,1,0-.49,10.4v-2.29h-4.35a.55.55,0,0,1-.55-.55V446.3a.55.55,0,0,1,.55-.55h7.72A.55.55,0,0,1,656.63,446.3Z" transform="translate(-335.92 -173.27)"/>
    <path class="cls-1" d="M678.36,457.21h-2.82a.55.55,0,0,1-.55-.55v-20a.55.55,0,0,1,.55-.55h2.82a.55.55,0,0,1,.55.55v20A.55.55,0,0,1,678.36,457.21Z" transform="translate(-335.92 -173.27)"/>
    <path class="cls-1" d="M701.92,441.18a1.51,1.51,0,0,0-.08,1.68c.33.81,1.59,1.31,2.66,1.62l1.65.46h0l.1,0,.07,0h0c1.8.52,4.22,1.51,5.19,3.92a5.41,5.41,0,0,1-.64,5.56,8.17,8.17,0,0,1-6.39,2.7,10.09,10.09,0,0,1-1.45-.1,7.33,7.33,0,0,1-5.41-3.31.85.85,0,0,1,.41-1.24l2.12-.84a.84.84,0,0,1,1,.27,3.92,3.92,0,0,0,2.48,1.24c1.69.25,3.5-.24,4.2-1.14a1.51,1.51,0,0,0,.08-1.68c-.33-.82-1.6-1.31-2.67-1.62l-1.56-.42v0h-.06c-1.82-.51-4.39-1.48-5.39-4a5.41,5.41,0,0,1,.64-5.56c1.58-2,4.73-3,7.84-2.59a7.32,7.32,0,0,1,5.44,3.34.82.82,0,0,1-.39,1.19l-2.18.86a.8.8,0,0,1-.94-.26,3.9,3.9,0,0,0-2.49-1.26C704.43,439.8,702.62,440.29,701.92,441.18Z" transform="translate(-335.92 -173.27)"/>
    <path class="cls-1" d="M744,436.73v2.82a.55.55,0,0,1-.55.55h-6.06v16.65a.55.55,0,0,1-.55.55H734a.55.55,0,0,1-.55-.55V440.1h-6.06a.55.55,0,0,1-.55-.55v-2.82a.55.55,0,0,1,.55-.55h16A.55.55,0,0,1,744,436.73Z" transform="translate(-335.92 -173.27)"/>
    <path class="cls-1" d="M776.4,455.89a.86.86,0,0,1-.69,1.37H773a.86.86,0,0,1-.69-.35l-3.41-4.6h-4.79v4.35a.55.55,0,0,1-.55.55h-2.82a.55.55,0,0,1-.55-.55v-20a.55.55,0,0,1,.55-.55h7.9a8.41,8.41,0,0,1,5.76,2.13,8.92,8.92,0,0,1,0,11.9,7.15,7.15,0,0,1-1.43,1.05Zm-12.31-7.49h4.67a4.55,4.55,0,0,0,2.93-1.07,5.12,5.12,0,0,0,0-6.2,4.58,4.58,0,0,0-3-1.07h-4.64Z" transform="translate(-335.92 -173.27)"/>
    <path class="cls-1" d="M810.45,437.46l-8,11.92-.4.6v6.77a.55.55,0,0,1-.55.55h-2.82a.55.55,0,0,1-.55-.55V450l-.4-.6-8-11.92a.82.82,0,0,1,.68-1.27h2.75a.81.81,0,0,1,.68.36l6.22,9.31,6.22-9.31a.82.82,0,0,1,.68-.36h2.75A.82.82,0,0,1,810.45,437.46Z" transform="translate(-335.92 -173.27)"/>
    <path class="cls-1" d="M366.51,437.21h0l-4.38,13.45-2,6a.69.69,0,0,1-.66.48h-2.7a.69.69,0,0,1-.66-.48l-4.88-14.86-1.9,5.83-2.94,9a.71.71,0,0,1-.67.49h-2.68a.71.71,0,0,1-.67-.49l-1.79-5.45-4.6-14a.71.71,0,0,1,.67-.93h2.63a.71.71,0,0,1,.67.49h0l1.87,5.68,1.88,5.74.67,2,4.38-13.46a.71.71,0,0,1,.66-.48h3.61a.69.69,0,0,1,.65.48l4.43,13.48.66-2h0l3.73-11.46a.69.69,0,0,1,.66-.48h2.65A.69.69,0,0,1,366.51,437.21Z" transform="translate(-335.92 -173.27)"/>
    <path class="cls-1" d="M383,440.05v4.55h8.24a.55.55,0,0,1,.55.55V448a.55.55,0,0,1-.55.55H383v4.77h10.68a.55.55,0,0,1,.55.55v2.81a.55.55,0,0,1-.55.55h-14a.55.55,0,0,1-.55-.55v-19.9a.55.55,0,0,1,.55-.55h1.73a.53.53,0,0,1,.22,0h12.09a.55.55,0,0,1,.55.55v2.81a.55.55,0,0,1-.55.55Z" transform="translate(-335.92 -173.27)"/>
    <path class="cls-1" d="M426.72,446.78a9.18,9.18,0,0,1-3.15,7.3c-3,2.62-7.64,3.14-10.82,3.14-.67,0-1.28,0-1.8-.05l-.1,0H408a.55.55,0,0,1-.55-.55v-19.9a.55.55,0,0,1,.55-.55h2.61c2.83-.16,9.11-.09,12.93,3.25A9.3,9.3,0,0,1,426.72,446.78Zm-3.91,0a5.49,5.49,0,0,0-1.8-4.39c-2.4-2.1-6.84-2.43-9.61-2.33v13.22c2.76.15,7.23-.1,9.63-2.17A5.38,5.38,0,0,0,422.82,446.78Z" transform="translate(-335.92 -173.27)"/>
    <path class="cls-1" d="M457.88,446.78a9.18,9.18,0,0,1-3.15,7.3c-3,2.62-7.64,3.14-10.82,3.14-.67,0-1.28,0-1.8-.05l-.1,0H439.2a.55.55,0,0,1-.55-.55v-19.9a.55.55,0,0,1,.55-.55h2.61c2.83-.16,9.11-.09,12.93,3.25A9.3,9.3,0,0,1,457.88,446.78Zm-3.91,0a5.49,5.49,0,0,0-1.8-4.39c-2.4-2.1-6.84-2.43-9.61-2.33v13.22c2.76.15,7.23-.1,9.63-2.17A5.38,5.38,0,0,0,454,446.78Z" transform="translate(-335.92 -173.27)"/>
    <path class="cls-1" d="M474.51,457.19H471.7a.55.55,0,0,1-.55-.55v-19.9a.55.55,0,0,1,.55-.55h2.81a.55.55,0,0,1,.55.55v19.9A.55.55,0,0,1,474.51,457.19Z" transform="translate(-335.92 -173.27)"/>
    <path class="cls-1" d="M508.78,436.74v19.9a.55.55,0,0,1-.55.55h-2.88a.54.54,0,0,1-.3-.14L505,457,495,444v12.62a.55.55,0,0,1-.55.55h-2.81a.55.55,0,0,1-.55-.55v-19.9a.55.55,0,0,1,.55-.55h2.81a.55.55,0,0,1,.38.16h0l10,13.27V436.74a.55.55,0,0,1,.55-.55h2.81A.55.55,0,0,1,508.78,436.74Z" transform="translate(-335.92 -173.27)"/>
    <path class="cls-1" d="M540.09,446.31v7h0v3.09c0,.45-.25.82-.55.82h-2.81c-.28,0-.51-.32-.54-.73a10.77,10.77,0,1,1,3.22-17.65,1.05,1.05,0,0,1,0,1.5l-1.27,1.26a1,1,0,0,1-1.46,0,6.87,6.87,0,1,0-.49,10.37v-2.28h-4.34a.55.55,0,0,1-.55-.55v-2.81a.55.55,0,0,1,.55-.55h7.69A.55.55,0,0,1,540.09,446.31Z" transform="translate(-335.92 -173.27)"/>
  </g>
</svg>
